<svg width="1440" height="834" viewBox="0 0 1440 834" fill="none" xmlns="http://www.w3.org/2000/svg">
<g clip-path="url(#clip0_7892_64437)">
<path d="M-7.92188 570.506C-6.02038 569.535 -4.06831 568.645 -2.2275 567.594C16.3323 557.03 34.9124 546.501 53.3913 535.83C62.1402 530.777 69.4933 524.268 76.6543 517.534C87.6182 507.221 93.616 494.994 95.6187 481.059C95.8412 479.53 96.1446 477.975 96.7211 476.527C97.9247 473.515 100.291 471.582 104.014 471.367C107.705 471.151 110.76 472.607 112.024 475.547C113.339 478.613 114.361 482.012 114.29 485.248C114.189 489.681 113.339 494.194 112.095 498.5C109.222 508.426 103.993 517.381 96.6604 525.328C88.2352 534.463 78.9704 542.833 67.9458 549.504C56.3345 556.535 44.6525 563.476 32.9198 570.354C19.3565 578.31 5.69203 586.15 -7.92188 594.035C-7.92188 586.195 -7.92188 578.346 -7.92188 570.506Z" fill="#2C596B"/>
<path d="M16.4805 65.9603C26.8881 65.0432 37.3059 64.1891 47.7034 63.1552C49.9387 62.9304 52.1032 62.1123 54.2677 61.4739C59.962 59.7927 65.09 63.5148 64.3011 68.7204C62.6727 79.4642 61.3275 90.244 59.4968 100.961C56.1894 120.309 52.6089 139.612 49.1599 158.942C48.9172 160.299 48.8363 161.693 48.8261 163.068C48.7958 166.359 46.9853 168.759 43.6678 169.892C34.6054 172.976 25.5429 176.087 16.4805 179.179C16.4805 175.098 16.4805 171.007 16.4805 166.925C21.2342 164.803 25.8767 162.466 30.7619 160.623C34.4031 159.247 36.4664 157.476 35.7382 153.727C35.5157 152.567 35.8899 151.29 36.0922 150.086C39.9154 127.267 43.7589 104.449 47.5821 81.622C47.9664 79.3294 48.1687 77.0188 48.5025 74.3485C37.4677 75.1757 26.9792 75.9579 16.4906 76.7491C16.4805 73.1438 16.4805 69.5475 16.4805 65.9603Z" fill="#2C596B"/>
<path d="M-10.125 786.768C-3.39896 785.563 3.26639 783.891 10.0632 783.243C24.8909 781.85 36.9876 786.777 46.2422 797.107C52.5839 804.183 55.9318 812.544 58.8144 821.076C35.8953 821.076 12.9762 821.076 -10.1149 821.076C-10.125 809.64 -10.125 798.204 -10.125 786.768Z" fill="#2C596B"/>
<path d="M-7.92188 400.935C-0.730578 399.362 6.38992 397.321 13.6925 396.377C18.4664 395.766 23.645 396.188 28.3987 397.123C40.7382 399.56 46.9889 408.452 44.8244 419.51C43.7523 424.994 41.2541 429.966 37.8556 434.56C26.3657 450.096 10.6481 461.308 -7.92188 469.552C-7.92188 464.652 -7.92188 459.752 -7.92188 454.852C-7.6589 454.825 -7.34536 454.87 -7.13296 454.762C6.79449 447.75 19.1138 439.083 27.802 426.945C29.9159 423.987 31.3622 420.481 32.313 417.056C33.4964 412.785 31.1903 409.764 26.3152 408.973C22.937 408.425 19.3565 408.371 15.9277 408.649C7.5025 409.333 -0.224861 412.246 -7.92187 415.15C-7.92188 410.412 -7.92188 405.674 -7.92188 400.935Z" fill="#2C596B"/>
<path d="M102.92 821.066C110.405 807.058 117.869 793.051 125.404 779.061C126.911 776.265 128.62 773.55 130.421 770.907C132.707 767.535 136.176 766.385 139.453 767.697C142.599 768.956 144.075 772.013 142.649 775.636C139.949 782.487 137.036 789.266 133.981 796C130.178 804.397 126.153 812.713 122.218 821.057C115.785 821.066 109.353 821.066 102.92 821.066Z" fill="#2C596B"/>
<path d="M-10.125 770.592C2.52804 766.987 14.9181 762.528 28.2286 761.035C30.4537 760.784 32.8104 760.945 35.0355 761.296C37.2708 761.647 38.7475 763.049 39.1116 765.126C39.4555 767.104 38.6261 768.776 36.7246 769.72C34.3377 770.907 31.8698 772.193 29.2501 772.759C16.8601 775.429 4.40931 777.875 -8.02122 780.401C-8.72922 780.536 -9.42711 780.716 -10.125 780.878C-10.125 777.452 -10.125 774.018 -10.125 770.592Z" fill="#2C596B"/>
<path d="M16.4805 11.5581C18.0381 9.47224 19.6159 7.3954 21.1432 5.29159C24.137 1.19186 27.0904 -2.93485 30.1247 -7.0166C31.1362 -8.3652 32.269 -9.67783 33.5231 -10.8466C35.5258 -12.7077 38.2162 -13.0763 40.2593 -11.9794C42.353 -10.8556 43.1318 -8.68886 42.3428 -6.1535C42.2012 -5.68598 42.0394 -5.20049 41.7663 -4.77793C33.3613 8.18658 24.9158 21.1421 16.4805 34.0976C16.4805 26.5814 16.4805 19.0743 16.4805 11.5581Z" fill="#2C596B"/>
<path d="M139.32 821.066C143.902 811.662 148.484 802.249 153.066 792.845C153.541 791.874 154.077 790.93 154.553 789.968C155.564 787.945 157.263 786.866 159.772 787.226C162.29 787.585 163.635 789.123 163.736 791.289C163.817 792.971 163.787 794.76 163.261 796.351C160.813 803.679 158.163 810.961 155.604 818.261C155.281 819.178 155.038 820.122 154.755 821.057C149.607 821.066 144.458 821.066 139.32 821.066Z" fill="#2C596B"/>
<path d="M1337.6 439.197C1333 440.775 1328.94 442.264 1324.82 443.545C1319.59 445.16 1314.32 446.666 1309.03 448.083C1305.79 448.949 1303.15 447.731 1302.28 445.241C1301.36 442.589 1302.71 439.882 1305.95 438.701C1317.86 434.343 1329.8 430.085 1341.75 425.854C1343.19 425.34 1344.78 425.069 1346.32 425.006C1351.35 424.817 1354.16 429.156 1351.99 433.676C1346.09 445.99 1343.64 459.305 1340.83 472.513C1340.78 472.729 1340.86 472.973 1340.92 473.595C1349.93 469.707 1359.92 469.112 1368.73 463.618C1365.95 461.678 1363.36 459.982 1360.89 458.124C1359.01 456.707 1356.94 455.354 1355.53 453.523C1351.65 448.462 1354.39 441.984 1360.72 441.263C1371.93 439.973 1382.82 437.555 1393.18 432.999C1394.3 432.512 1395.5 432.196 1396.69 431.889C1401.79 430.608 1405.46 433.306 1405.15 438.619C1404.87 443.256 1403.98 447.875 1403.07 452.449C1400.44 465.864 1397.68 479.252 1394.82 493.398C1404.14 490.826 1412.96 488.391 1421.83 485.946C1418.91 479.315 1416.15 473.045 1413.4 466.784C1413 465.882 1412.54 464.998 1412.25 464.069C1411.01 460.117 1412.96 456.662 1417.05 456.013C1423.67 454.948 1430.33 454.154 1436.97 453.162C1439.8 452.738 1442.59 452.07 1445.4 451.538C1449.13 450.825 1451.74 452.323 1452.54 456.049C1452.99 458.169 1453.15 460.478 1452.84 462.616C1450.41 479.396 1447.83 496.158 1445.28 512.929C1444.82 515.915 1444.24 518.883 1443.72 521.86C1443.22 524.837 1441.24 526.804 1437.67 527.435C1432.52 528.356 1427.3 528.906 1422.17 529.962C1406.15 533.245 1390.13 536.619 1374.15 540.129C1371.07 540.805 1368.14 542.222 1365.17 543.358C1363.8 543.882 1362.51 544.648 1361.14 545.154C1354.77 547.508 1349.68 544.757 1348.64 538.018C1347.27 529.068 1347.05 520.065 1349.09 511.143C1349.31 510.195 1349.52 509.248 1349.84 507.778C1346.49 508.211 1343.43 508.472 1340.45 509.104C1339.88 509.221 1339.42 510.764 1339.24 511.711C1336.03 528.861 1332.96 546.047 1329.64 563.169C1328.83 567.319 1327.38 571.379 1325.85 575.33C1325.11 577.243 1323.72 579.056 1322.22 580.482C1319.6 582.963 1315.93 582.349 1314.48 579.038C1313.57 576.963 1313.05 574.383 1313.34 572.173C1314.26 565.443 1315.67 558.785 1316.87 552.091C1319.67 536.448 1322.57 520.814 1325.21 505.143C1326.05 500.128 1328.67 497.105 1333.29 495.31C1339.62 492.847 1346.14 493.244 1352.68 493.65C1354.8 493.786 1356.91 494.119 1358.98 494.597C1363.96 495.743 1366.07 499.478 1364.75 504.431C1363.9 507.597 1363.01 510.755 1362.37 513.957C1361.41 518.757 1361.78 523.547 1362.75 528.265C1363.06 528.338 1363.24 528.446 1363.37 528.392C1375.44 523.385 1388.37 522.844 1401.07 521.03C1411.43 519.551 1421.76 517.81 1432.08 516.032C1432.88 515.897 1433.96 514.715 1434.11 513.867C1435.03 508.797 1435.73 503.682 1436.47 498.576C1438.16 487.064 1439.83 475.553 1441.51 464.042C1441.62 463.32 1441.66 462.598 1441.8 461.308C1435.76 462.598 1430.02 463.834 1424.08 465.106C1424.38 466.306 1424.49 467.118 1424.76 467.858C1426.95 473.586 1429.12 479.315 1431.42 484.999C1432.46 487.579 1431.7 489.879 1428.96 490.989C1426.01 492.189 1422.99 493.226 1419.99 494.318C1411.31 497.475 1402.62 500.606 1393.94 503.772C1390.81 504.918 1387.64 506.091 1384.64 503.646C1381.54 501.12 1382.07 497.71 1382.75 494.336C1385.92 478.521 1389.1 462.698 1392.27 446.883C1392.42 446.107 1392.5 445.322 1392.65 444.285C1386.64 446.36 1380.95 448.326 1375.02 450.374C1376.36 451.89 1377.71 453.189 1378.79 454.687C1380.41 456.933 1382.18 459.161 1383.29 461.66C1384.92 465.332 1383.33 468.859 1379.62 470.294C1370.94 473.668 1362.19 476.888 1353.48 480.208C1349.66 481.661 1345.84 483.122 1342.09 484.737C1334.68 487.94 1329.01 484.078 1330.3 476.121C1332.12 464.98 1334.59 453.938 1336.8 442.859C1336.97 441.84 1337.23 440.821 1337.6 439.197Z" fill="#DF9E62"/>
<path d="M1282.65 126.803C1284.99 124.987 1287.09 123.692 1288.69 122.02C1290.34 120.293 1291.36 118.118 1292.9 116.284C1295.19 113.55 1297.34 110.602 1300.18 108.363C1306.09 103.697 1312.84 104.029 1318.37 109.046C1320.86 111.303 1322.97 113.928 1324.99 116.553C1327.8 120.195 1331.64 122.002 1336.48 122.523C1345.24 123.467 1352.51 117.093 1349.8 109.711C1345.83 98.8777 1341.05 88.5115 1329.07 81.7865C1317.98 75.574 1306.77 70.1616 1294.03 67.3565C1291.01 66.6912 1288.14 65.4505 1285.12 64.8122C1282.7 64.2997 1280.11 63.958 1277.65 64.1289C1273.49 64.4256 1270.71 62.2948 1271.67 58.6356C1272.16 56.7475 1273.36 54.7876 1274.85 53.3761C1281.05 47.4692 1288.91 46.2734 1297.4 48.0266C1301.68 48.9077 1305.82 50.3102 1309.95 51.6858C1311.73 52.2792 1312.57 51.9465 1313.44 50.544C1316.17 46.1745 1315.81 42.0568 1311.46 38.8652C1308.92 37.0041 1305.71 35.6465 1302.57 34.6755C1294.76 32.248 1286.69 32.3919 1278.57 33.3179C1276.6 33.5427 1274.5 33.5876 1272.58 33.21C1268.68 32.4368 1267.16 29.1642 1269.36 26.2063C1270.48 24.7049 1272.17 23.3293 1273.96 22.4842C1288.57 15.5254 1303.04 15.993 1317.19 23.5721C1318.8 24.4352 1319.86 24.4891 1321.34 23.5631C1323.65 22.0976 1326.04 20.6951 1328.5 19.4274C1341.34 12.8282 1348.22 2.67781 1350.83 -10.035C1351.03 -10.997 1351.25 -11.959 1351.45 -12.921C1351.65 -13.874 1351.83 -14.827 1352.05 -15.8339C1356.87 -15.8339 1361.53 -15.8339 1366.72 -15.8339C1361.77 6.02233 1347.98 21.1806 1324.63 29.5958C1331.21 39.1708 1329.94 47.8558 1321.74 56.0463C1322.51 56.4868 1323.21 56.8285 1323.85 57.251C1332.11 62.6904 1340.75 67.7341 1348.52 73.6859C1357.78 80.7885 1361.37 90.867 1363.5 101.17C1364.41 105.585 1364.4 110.314 1363.73 114.782C1361.58 129.104 1347.17 136.602 1332.14 134.463C1324.61 133.393 1318.49 130.282 1313.97 124.789C1312.35 122.82 1310.75 120.842 1308.81 118.468C1307.64 119.853 1306.63 120.941 1305.77 122.128C1304.03 124.528 1302.74 127.279 1300.58 129.329C1297.44 132.341 1294.05 135.389 1290.14 137.475C1282.1 141.745 1274.04 139.722 1268.85 132.79C1264.72 127.288 1263.42 121.058 1263.15 114.62C1262.89 108.093 1262.82 101.557 1262.6 95.0297C1262.55 93.4114 1262.26 91.8021 1262.04 89.8241C1260.83 90.2377 1259.91 90.5074 1259.04 90.867C1254.03 92.9079 1249.09 95.1016 1244 96.9717C1240.8 98.1495 1237.45 99.2553 1234.04 99.7228C1214.79 102.402 1204.91 86.111 1207.37 75.0525C1209.3 66.3675 1212.07 57.7275 1215.67 49.4741C1220.32 38.8382 1226.02 28.5529 1231.53 18.2226C1237.75 6.57076 1245.87 -4.00224 1255.34 -13.7661C1256.86 -15.3304 1258.32 -16.2025 1260.69 -15.9598C1262.49 -15.78 1264.33 -15.9238 1266.62 -15.9238C1265.92 -14.1527 1265.55 -12.6243 1264.76 -11.2937C1262.75 -7.90418 1260.65 -4.54168 1258.39 -1.27807C1251.46 8.69255 1245.53 19.0947 1240.86 30.0363C1236.23 40.8701 1231.58 51.6948 1227.28 62.6274C1225.8 66.3675 1225.08 70.3953 1224.44 74.3422C1224.11 76.455 1224.27 78.7926 1224.95 80.8335C1226.42 85.2928 1229.48 86.6235 1234.48 85.3198C1236.5 84.7894 1238.47 84.0791 1240.37 83.2789C1246.36 80.7885 1252.39 78.3431 1258.27 75.6459C1267.38 71.4562 1274.71 72.8408 1277.01 83.6745C1278.83 92.2426 1279.7 100.766 1279.43 109.469C1279.3 113.901 1280.26 118.369 1280.91 122.802C1281.02 123.935 1281.82 125.005 1282.65 126.803Z" fill="white"/>
<path d="M769.646 28.3891C771.052 28.7937 772.165 29.1533 773.308 29.441C789.228 33.4419 801.931 41.974 812.976 52.4571C821.846 60.8813 826.287 71.2655 827.46 82.7735C827.682 84.9403 828.876 87.0261 829.088 89.1928C829.432 92.7172 829.392 96.2864 829.392 99.8288C829.392 100.44 828.825 101.051 828.441 101.834C827.834 101.42 827.48 101.285 827.298 101.042C823.333 95.9538 819.459 90.8021 815.424 85.7584C803.944 71.3554 788.52 64.4775 768.493 66.5813C756.457 67.84 744.451 69.4943 732.375 70.3844C707.14 72.2365 685.353 64.7742 667.532 49.1215C653.918 37.155 649.72 21.9338 652.684 5.34609C655.334 -9.49746 662.07 -23.0464 672.387 -34.923C689.773 -54.9272 724.991 -71.6947 763.335 -62.3355C788.702 -56.1499 806.574 -28.9352 797.643 -4.90324C793.961 5.01344 787.943 13.5366 779.295 20.5942C776.2 23.1206 773.065 25.629 769.646 28.3891ZM797.633 56.1972C792.141 51.2883 786.83 46.3344 779.801 43.1697C770.395 38.9351 760.644 36.148 749.943 36.4897C747.587 36.5616 745.544 35.7794 745.028 33.4059C744.603 31.4369 745.958 29.6478 748.77 28.9555C751.4 28.2992 754.151 27.8047 756.872 27.6788C759.491 27.553 761.535 26.7438 763.031 24.9637C766.662 20.6572 770.273 16.3327 773.753 11.9272C778.203 6.2991 780.903 0.00564983 782.299 -6.75531C785.809 -23.8285 775.796 -39.9398 758.348 -45.6309C726.62 -55.9791 698.785 -42.8527 683.502 -24.6916C676.058 -15.8359 671.325 -5.70341 668.634 5.11233C665.691 16.8991 667.916 28.0654 676.675 37.191C687.932 48.9058 702.517 55.8285 720.167 56.9524C730.534 57.6177 740.669 55.9185 750.864 54.7317C766.501 52.8976 782.198 50.0206 797.633 56.1972Z" fill="#2C596B"/>
<path d="M16.2023 699.219C19.3276 691.217 24.2229 684.393 29.6948 677.785C38.6055 667.032 50.854 661.089 65.0242 657.907C67.6843 657.313 70.6781 657.556 73.4596 657.835C75.0071 657.997 76.4433 659.03 78.7089 660.019C74.997 662.024 72.2458 663.787 69.2419 665.081C58.0757 669.9 49.2762 676.976 41.7814 685.76C35.5308 693.078 29.1587 700.19 26.0638 709.144C25.2951 711.374 23.343 711.94 20.693 712.048C12.6724 712.363 8.05011 708.191 3.99426 702.914C-4.87602 691.352 -7.01014 678.774 -3.51058 665.261C-0.0413603 651.865 7.63543 640.465 17.6486 630.224C27.6821 619.957 39.0202 610.877 50.8844 602.353C69.0295 589.317 87.3971 576.532 105.603 563.559C120.815 552.725 134.358 540.489 144.928 525.816C146.859 523.137 148.66 520.476 148.296 516.978C148.194 515.971 149.61 514.254 150.743 513.894C152.028 513.49 154.526 513.778 155.183 514.596C156.701 516.493 158.268 518.893 158.289 521.096C158.319 524.521 157.661 528.145 156.286 531.345C151.482 542.512 144.462 552.392 134.763 560.907C120.208 573.673 104.005 584.687 88.358 596.294C74.825 606.345 61.0493 616.136 47.6882 626.367C37.1086 634.468 28.3901 644.061 21.4718 654.886C14.0277 666.538 11.58 679.008 13.8861 692.224C14.1491 693.752 14.6548 695.245 15.12 696.737C15.4134 697.582 15.8483 698.391 16.2023 699.219Z" fill="#E27A7A"/>
<path d="M412.336 29.1095C412.083 34.4845 411.868 39.8651 411.57 45.2401C411.316 49.8246 409.933 54.0874 407.86 58.1242C406.989 59.818 405.92 61.3086 403.671 60.8513C403.489 60.8174 403.28 60.9077 403.087 60.9642C391.969 64.1993 380.846 67.4288 369.733 70.6866C367.666 71.2907 365.632 72.0303 363.582 72.7022C362.579 73.0297 361.586 73.391 360.567 73.6507C354.663 75.1356 350.524 71.7819 350.899 65.5657C351.202 60.5012 351.984 55.4763 352.376 50.4175C353.087 41.2709 353.737 32.1188 354.261 22.961C354.548 17.953 356.212 16.1858 360.975 14.8307C371.872 11.7424 383.034 10.2067 394.141 8.34349C398.38 7.63209 402.684 7.203 406.973 7.01103C410.809 6.83601 412.551 8.74436 412.788 12.6627C412.86 13.837 412.898 15.0227 412.86 16.1971C412.727 20.4993 412.557 24.8072 412.402 29.1095C412.386 29.1151 412.364 29.1151 412.336 29.1095ZM362.353 62.8274C362.959 62.7483 363.4 62.7314 363.819 62.6354C376.023 59.8124 388.226 56.9781 400.419 54.1212C400.717 54.0535 401.125 53.6752 401.174 53.3873C401.648 50.457 402.227 47.5267 402.453 44.5738C403.043 36.8558 403.44 29.1208 403.974 21.397C404.151 18.8676 404.526 16.3552 404.823 13.7354C404.311 13.7862 403.963 13.7806 403.633 13.854C397.966 15.1526 392.272 16.3382 386.644 17.7892C379.947 19.5169 373.305 21.4761 366.641 23.3336C365.654 23.6103 365.009 24.0111 365.031 25.3154C365.23 36.6807 363.857 47.9389 362.705 59.2139C362.584 60.3601 362.479 61.5175 362.353 62.8274Z" fill="#48825D"/>
<path d="M1030.31 31.5821C1027.05 35.7448 1024.12 39.6827 1020.94 43.4768C1018.76 46.084 1016.49 48.7183 1013.82 50.93C1008.01 55.74 1000.55 54.6971 997.641 48.1519C995.355 43.0002 994.708 37.2732 993.362 31.7979C993.191 31.0966 993.17 30.3684 993.039 29.2985C991.866 29.793 990.905 30.1796 989.954 30.5932C978.656 35.547 967.308 40.4829 954.857 42.6856C950.882 43.3868 946.584 43.5397 942.578 43.0542C933.303 41.9304 928.135 35.2233 930.219 27.0778C931.119 23.5535 932.535 19.8853 934.79 16.9364C938.846 11.6319 943.124 6.27346 948.343 1.90401C965.204 -12.2113 984.391 -23.3507 1005.83 -31.2715C1009.87 -32.7639 1014.23 -33.618 1018.49 -34.571C1020.88 -35.1105 1023.23 -34.7329 1025.14 -33.0876C1025.58 -32.71 1026.21 -32.4403 1026.81 -32.2874C1032.87 -30.75 1037.88 -27.6213 1041.63 -23.3237C1047.52 -16.5628 1053.48 -9.74787 1058.39 -2.42049C1064.89 7.2894 1067.28 18.0872 1065.61 29.4154C1065.38 31.0247 1064.96 32.643 1064.38 34.1804C1062.09 40.1682 1056.34 43.3059 1049.33 42.3529C1042.22 41.3819 1036.33 38.46 1031.89 33.3623C1031.45 32.8498 1031 32.3553 1030.31 31.5821ZM1008.4 38.3251C1008.61 38.3701 1008.83 38.406 1009.03 38.451C1009.68 37.6958 1010.41 36.9945 1010.97 36.1943C1015.32 29.9548 1019.64 23.6973 1023.98 17.4488C1025.97 14.5808 1028.59 12.486 1032.66 12.7287C1036.81 12.9715 1039.16 15.381 1040.81 18.5277C1041.85 20.5236 1042.77 22.6095 1044.16 24.4076C1045.25 25.8191 1046.98 26.853 1048.42 28.0488C1048.72 27.887 1049.01 27.7251 1049.3 27.5633C1049.3 25.8641 1049.39 24.1738 1049.29 22.4746C1048.9 15.4709 1046.02 9.33028 1041.15 3.84599C1033.13 -5.21658 1024.63 -13.8656 1014.88 -21.5166C1013.3 -22.7573 1012.29 -22.9641 1010.45 -22.0021C994.394 -13.6138 979.303 -4.08376 965.73 7.27142C959.156 12.7737 953.158 18.7255 948.445 25.6123C947.565 26.898 946.867 28.2826 945.815 30.0897C947.575 30.0897 948.758 30.2335 949.881 30.0627C952.763 29.6132 955.707 29.2266 958.488 28.4444C971.101 24.8661 983.511 20.9642 994.05 13.3671C999.34 9.55505 1005.87 12.0275 1007.26 17.9703C1007.61 19.4807 1007.71 21.0451 1007.78 22.5915C1007.89 25.6123 1007.85 28.6332 1007.96 31.6541C1008.02 33.8657 1008.24 36.0954 1008.4 38.3251Z" fill="#2C596B"/>
<path d="M96.6896 365.8C93.8373 367.787 91.3896 369.603 88.8004 371.257C86.0493 373.019 83.2982 374.862 80.3043 376.229C72.668 379.708 65.416 377.38 61.7647 370.448C59.2867 365.755 58.8012 360.693 58.7608 355.613C58.6698 341.678 60.6825 327.922 63.4943 314.238C65.5677 304.115 67.7221 294.009 69.8259 283.895C70.6552 279.921 73.7098 277.341 77.7454 277.26C81.7608 277.179 85.3817 279.579 86.0695 283.463C86.5752 286.322 86.6056 289.361 86.11 292.22C83.5005 307.145 80.5572 322.024 77.9275 336.94C76.7643 343.548 75.9956 350.219 75.1865 356.872C74.9336 359.012 75.146 361.196 75.146 363.948C76.6834 363.058 77.624 362.59 78.4736 362.015C83.1363 358.832 87.7384 355.577 92.4314 352.431C94.9904 350.713 97.5897 348.996 100.351 347.549C106.814 344.159 113.651 347.279 114.005 353.932C114.248 358.562 113.742 363.228 113.56 367.877C112.65 390.479 111.74 413.082 110.819 435.693C110.647 439.955 110.283 444.18 107.977 448.055C106.167 451.094 104.437 451.22 102.212 448.397C98.6922 443.928 98.1865 438.66 97.3875 433.49C94.2419 413.144 95.0005 392.754 96.5277 372.363C96.6592 370.574 96.7806 368.776 96.8817 366.986C96.8817 366.753 96.8008 366.51 96.6896 365.8Z" fill="#2C596B"/>
<path d="M1388.11 362.962C1385.6 354.889 1382.7 346.986 1380.77 338.903C1378.84 330.794 1377.89 322.504 1376.46 314.035C1375.85 314.422 1375.42 314.664 1375.05 314.952C1368.42 320.158 1360.56 319.978 1354.44 314.233C1349.5 309.585 1346 304.011 1344.3 297.87C1342.2 290.282 1341.05 282.487 1339.35 274.809C1337.92 268.327 1336.27 261.88 1334.73 255.416C1334.37 253.906 1333.87 252.395 1333.78 250.867C1333.64 248.673 1334.68 246.866 1336.9 245.787C1339.11 244.717 1341.63 244.654 1343.39 246.12C1345.46 247.864 1347.73 249.932 1348.56 252.251C1350.84 258.599 1352.81 265.081 1354.17 271.635C1356.01 280.536 1356.73 289.635 1360.39 298.194C1361.53 300.855 1362.93 303.435 1364.35 305.979C1365.35 307.751 1366.8 307.903 1368.12 306.222C1370.46 303.201 1372.76 300.154 1374.97 297.052C1377 294.229 1378.94 291.217 1383.5 292.224C1387.96 293.213 1388.46 296.665 1388.82 299.965C1390.39 314.35 1391.81 328.744 1393.44 343.129C1394.31 350.807 1396.74 358.17 1400.18 365.255C1401.76 368.509 1400.34 371.207 1396.05 371.917C1389.65 372.987 1383.18 373.76 1376.72 374.605C1364.54 376.196 1352.34 377.797 1340.7 381.537C1336.32 382.948 1332.06 384.773 1327.98 386.778C1322.7 389.368 1318.76 393.234 1316.26 398.152C1314.12 402.368 1312.11 406.639 1309.89 410.819C1309.65 411.278 1307.97 411.718 1307.63 411.458C1306.28 410.415 1304.87 409.255 1304.06 407.87C1301.68 403.78 1301.61 399.356 1302.62 394.96C1303.25 392.173 1304.27 389.44 1305.29 386.733C1308.72 377.689 1315.71 371.548 1325.98 369.283C1335.65 367.152 1345.6 365.812 1355.52 364.841C1365.92 363.825 1376.42 363.654 1386.88 363.106C1387.49 363.061 1388.09 362.971 1388.11 362.962Z" fill="#2C596B"/>
<path d="M1364.21 776.918C1365.73 775.318 1367.15 773.627 1368.81 772.144C1370.61 770.535 1372.44 768.844 1374.6 767.703C1378.44 765.662 1382.02 766.857 1383.94 770.427C1384.17 770.867 1384.46 771.317 1384.55 771.784C1385.55 776.792 1389.46 778.842 1394.58 779.939C1399.35 780.964 1404.07 780.829 1408.78 779.939C1411.95 779.336 1412.84 778.06 1412.4 775.147C1411.65 770.112 1408.16 766.543 1403.58 764.151C1399.19 761.868 1394.25 760.42 1389.53 758.64C1387.94 758.038 1386.19 757.696 1384.67 756.977C1382.1 755.754 1380.89 753.345 1381.35 751.016C1381.85 748.553 1384.03 746.772 1387.05 746.377C1405.3 743.967 1423.54 741.486 1441.22 736.568C1441.47 736.496 1441.75 736.532 1442.41 736.505C1442.41 737.971 1442.41 739.391 1442.41 740.812C1442.41 742.277 1442.41 743.734 1442.41 745.568C1431.36 747.788 1420.38 749.982 1409.04 752.257C1410.27 753.066 1411.28 753.713 1412.25 754.378C1421.03 760.393 1424.55 770.328 1420.95 778.797C1419.68 781.764 1417.55 784.057 1414.35 785.414C1403.5 790.017 1392.88 789.019 1382.8 783.688C1380.42 782.429 1378.86 779.966 1376.67 777.799C1374.35 780.11 1371.7 782.636 1369.2 785.279C1366.96 787.653 1364.95 790.206 1362.71 792.58C1361.55 793.82 1360.26 795.079 1358.76 795.924C1355.07 798.001 1350.71 796.401 1349.68 792.625C1349.28 791.15 1349.28 789.55 1349.33 788.021C1349.74 777.17 1353.27 766.992 1357.79 757.013C1360.58 750.89 1363.32 744.74 1365.84 738.537C1366.38 737.188 1365.93 735.525 1365.94 734.006C1364.35 734.563 1362.53 734.842 1361.2 735.714C1355.06 739.742 1350.27 744.803 1346.44 750.71C1334.98 768.386 1330.94 787.563 1331.38 807.693C1331.4 808.574 1331.75 809.455 1331.77 810.336C1331.8 811.415 1332.08 812.934 1331.44 813.483C1330.65 814.148 1328.54 814.571 1327.79 814.094C1325.91 812.925 1323.97 811.424 1322.98 809.653C1318.55 801.768 1317.43 793.308 1318.48 784.605C1320.37 768.997 1326.98 754.936 1336.6 741.926C1341.74 734.977 1348.64 729.744 1357.55 727.074C1361.29 725.959 1365.42 725.653 1369.41 725.42C1372.06 725.267 1373.37 727.209 1374.02 729.313C1375.72 734.905 1375.42 740.497 1373.66 746.008C1370.65 755.421 1367.46 764.799 1364.38 774.194C1364.11 775.021 1363.98 775.875 1363.8 776.72C1363.93 776.792 1364.07 776.855 1364.21 776.918Z" fill="#DF9E62"/>
<path d="M1166.73 40.7267C1167.07 38.3352 1167.39 36.0066 1167.73 33.687C1167.91 32.5542 1168 31.3944 1168.35 30.3065C1168.97 28.4095 1170.34 27.0879 1172.71 27.2138C1175.05 27.3396 1176.59 28.7062 1176.59 30.7021C1176.59 35.0086 1176.77 39.4051 1175.91 43.6127C1174.07 52.5943 1171.65 61.4861 1169.38 70.3958C1169.05 71.7354 1168.4 73.0301 1167.69 74.2618C1167.38 74.8102 1166.47 75.5385 1165.98 75.4576C1165.4 75.3587 1164.61 74.5315 1164.54 73.9561C1164.25 71.6905 1163.98 69.3979 1164.14 67.1322C1164.53 61.6749 1165.15 56.2266 1165.66 50.7782C1165.71 50.2208 1165.67 49.6634 1165.67 48.8093C1164.34 49.052 1163.13 49.3307 1161.91 49.4926C1149.92 51.021 1138.2 50.059 1126.99 45.9772C1110.47 39.9535 1103.81 28.0859 1108.43 12.7568C1109.75 8.38735 1111.49 3.87405 1114.26 0.133939C1130.33 -21.5335 1152.28 -33.9226 1182.4 -31.7559C1195.78 -30.7939 1207.46 -26.2266 1215.39 -15.8334C1225.51 -2.58124 1224.14 13.6739 1211.28 24.8942C1206.73 28.8501 1201.18 31.9249 1195.97 35.2514C1194.62 36.1145 1193.92 36.9237 1193.47 38.4161C1190.68 47.8743 1187.7 57.2875 1184.69 66.6917C1184.29 67.9144 1183.44 69.0652 1182.58 70.1081C1181.1 71.8973 1178.95 71.7264 1178.22 69.6046C1177.48 67.4559 1176.88 65.0913 1177.09 62.8976C1178.16 51.8481 1179.27 40.7896 1180.88 29.7941C1181.87 22.9971 1187.07 21.5676 1193.06 26.2158C1198.61 22.4038 1204.32 18.6906 1207.85 13.0265C1215.55 0.637412 1209.46 -14.6197 1194.62 -19.9781C1185.07 -23.4305 1175.15 -23.8711 1165.42 -21.2368C1146.42 -16.1122 1131.93 -5.85383 1123.37 10.3024C1121.61 13.6289 1120.69 17.4319 1120.15 21.1091C1119.39 26.2158 1121.7 30.4324 1126.74 33.1566C1129.08 34.4243 1131.54 35.629 1134.13 36.3662C1144.62 39.3331 1155.46 40.3761 1166.73 40.7267Z" fill="white"/>
<path d="M1323.15 595.828C1335.47 596.233 1345.36 599.379 1353.26 606.635C1356.38 609.503 1357.92 612.722 1358.17 617.073C1358.49 622.989 1356.63 628.257 1354.43 633.436C1348.63 647.093 1342.4 660.606 1336.16 674.11C1334.91 676.798 1333.05 679.306 1331.15 681.689C1328.96 684.44 1326.41 684.53 1323.4 682.489C1322.75 682.048 1321.79 681.797 1320.95 681.752C1296.05 680.52 1277.24 664.31 1276.06 642.238C1274.87 619.968 1291.96 600.494 1315.8 596.592C1318.59 596.152 1321.44 595.999 1323.15 595.828ZM1323.08 672.392C1330.57 653.764 1338.02 635.216 1345.49 616.623C1333.75 608.748 1316.13 607.759 1303.74 618.224C1291.33 628.707 1289.2 647.434 1299.13 660.003C1304.95 667.394 1312.67 672.042 1323.08 672.392Z" fill="#E27A7A"/>
<path d="M581.523 -20.9589C569.022 -0.595053 559.626 20.4161 556.965 43.4501C556.783 45.0145 556.945 46.6148 556.945 48.2062C557.38 48.413 557.805 48.6107 558.24 48.8175C559.16 47.7117 560 46.5429 561.011 45.509C567.292 39.1256 572.39 32.0859 576.061 24.2461C580.613 14.5272 585.184 4.80833 589.776 -4.90157C590.201 -5.80063 590.697 -6.69071 591.324 -7.49088C593.67 -10.5117 597.433 -11.6985 600.943 -10.6106C604.321 -9.55873 606.718 -6.33108 606.212 -2.80675C605.889 -0.57707 605.059 1.64362 604.098 3.73844C602.166 7.94606 599.992 12.0728 597.757 16.5411C604.806 16.9187 611.441 16.64 617.995 15.4532C618.714 15.3184 619.411 14.2845 619.786 13.5292C625.096 3.08212 629.273 -7.70665 631.923 -18.936C632.075 -19.5653 632.307 -20.1767 632.52 -20.86C636.515 -20.86 640.449 -20.86 644.768 -20.86C643.463 -16.6883 642.502 -12.6066 640.904 -8.7226C637 0.771525 632.803 10.1757 628.706 19.6069C627.483 22.439 625.075 23.8595 621.697 23.8955C613.08 24.0033 604.462 24.1652 595.845 24.0843C593.913 24.0663 593.519 24.9384 593.003 26.0802C588.269 36.5903 581.705 46.0664 572.683 54.104C570.033 56.4596 567.211 58.7702 564.076 60.5593C555.974 65.1805 547.428 62.4743 544.039 54.4367C542.057 49.7256 541.956 44.7987 542.664 39.9168C545.718 18.7798 554.336 -0.622024 566.028 -19.0708C566.969 -20.5543 568.111 -21.0578 569.983 -20.9948C573.796 -20.869 577.619 -20.9589 581.523 -20.9589Z" fill="#48825D"/>
<path d="M1395.47 669.27C1387.68 671.158 1380.19 673.064 1372.64 674.754C1370.54 675.221 1368.25 675.266 1366.07 675.15C1357.96 674.709 1352.26 668.559 1353.91 661.475C1354.66 658.22 1356.22 654.813 1358.49 652.196C1362.89 647.099 1367.88 642.388 1372.9 637.748C1377.29 633.694 1382.21 630.088 1386.6 626.034C1392.47 620.603 1397.17 614.499 1398.37 606.776C1399.45 599.763 1396.76 596.382 1388.93 595.331C1385.43 594.863 1381.66 593.892 1378.75 597.075C1378.43 597.416 1376.42 597.039 1375.7 596.472C1372.34 593.82 1373.41 589.505 1377.83 587.769C1382.96 585.747 1388.38 585.693 1393.8 586.538C1403.45 588.048 1409.35 593.766 1410.52 602.424C1411.36 608.682 1409.95 614.598 1407.37 620.378C1403.63 628.74 1398.15 636.139 1391.73 643.044C1388.12 646.928 1384.62 650.902 1381.07 654.84C1381.2 655.028 1381.33 655.208 1381.46 655.397C1382.34 655.145 1383.23 654.93 1384.09 654.651C1387.88 653.419 1391.58 651.9 1395.47 650.983C1403.3 649.131 1409.11 652.709 1410.34 659.838C1410.9 663.066 1411.18 666.339 1411.96 669.521C1413.44 675.563 1416.86 677.937 1423.82 677.892C1431.18 677.847 1438.19 676.345 1444.81 673.45C1445.69 673.064 1446.59 672.722 1447.84 672.21C1447.84 676.732 1447.89 680.948 1447.78 685.156C1447.77 685.669 1446.99 686.415 1446.37 686.64C1437.57 689.867 1428.42 691.602 1418.92 690.559C1408.2 689.382 1400.95 684.014 1397.32 674.934C1396.55 673.037 1396.04 671.041 1395.47 669.27Z" fill="#2C596B"/>
<path d="M143.831 698.005C145.045 698.005 146.491 697.636 147.422 698.086C149.111 698.904 150.072 700.19 149.586 702.266C146.724 714.683 131.836 726.442 117.544 727C105.902 727.458 97.5682 722.271 91.8637 713.631C87.2313 706.618 85.6231 698.796 85.9063 690.776C86.3716 677.668 91.358 665.863 100.046 655.335C104.193 650.31 109.665 646.83 116.816 645.886C121.782 645.239 124.048 646.758 127.223 650.184C130.278 653.474 130.46 657.107 130.986 660.883C132.594 672.409 134.698 683.836 140.534 694.409C141.333 695.856 142.355 697.205 143.275 698.598C143.477 698.401 143.659 698.203 143.831 698.005ZM137.115 706.043C137.115 705.818 137.115 705.602 137.115 705.377C127.78 702.59 123.714 695.937 121.6 688.232C120.154 682.955 119.304 677.488 118.798 672.067C118.333 667.095 118.697 662.06 118.697 657.053C118.272 656.891 117.847 656.729 117.423 656.567C115.147 658.815 112.598 660.892 110.666 663.355C107.45 667.446 106.196 672.247 105.326 677.12C103.687 686.344 105.154 695.2 109.584 703.624C112.902 709.945 118.464 712.093 125.909 709.989C129.732 708.911 133.393 707.373 137.115 706.043Z" fill="#2C596B"/>
<path d="M156.968 71.4893C163.734 71.9837 172.24 72.5412 180.736 73.2784C182.699 73.4492 184.691 74.0696 186.512 74.7978C190.062 76.2273 191.842 79.2482 191.114 82.0982C190.345 85.1101 187.624 86.6835 183.397 86.7284C172.655 86.8273 161.893 86.6205 151.192 87.1959C139.531 87.8253 128.021 89.6504 117.057 93.4804C112.121 95.2066 107.559 97.4363 104.535 101.527C101.895 105.087 102.017 106.184 106.345 107.883C111.625 109.951 117.137 111.543 122.518 113.404C124.561 114.105 126.685 114.77 128.486 115.831C130.822 117.198 131.753 119.355 131.004 121.837C130.286 124.21 128.354 125.595 125.664 125.838C123.772 126.009 121.719 126.08 119.929 125.622C112.262 123.662 104.474 121.918 97.0909 119.284C85.8741 115.292 82.2936 107.29 86.4202 97.1665C89.8692 88.7063 96.575 82.9254 105.587 79.1493C115.792 74.8608 126.746 73.2155 137.862 72.3524C143.617 71.9028 149.412 71.8129 156.968 71.4893Z" fill="white"/>
<path d="M70.671 241.629C84.7703 242.177 98.7383 240.963 112.635 238.958C114.173 238.734 115.74 238.563 117.288 238.59C120.282 238.635 122.456 240.271 122.78 242.51C123.094 244.694 121.637 246.762 118.734 247.347C113.485 248.39 108.185 249.334 102.845 249.936C87.0865 251.707 71.3082 253.334 55.5298 254.872C53.1428 255.106 52.546 255.906 52.3539 257.875C50.4119 277.924 45.5874 297.532 40.5504 317.105C40.0852 318.894 39.2659 320.728 38.1028 322.239C35.7562 325.286 31.5891 324.891 30.1428 321.438C29.3336 319.506 28.9189 317.267 29.101 315.217C30.1023 303.268 31.2149 291.32 32.5298 279.398C33.4704 270.875 34.765 262.379 35.9686 253.883C37.1014 245.854 41.7237 241.952 50.8468 241.674C57.4414 241.467 64.0562 241.629 70.671 241.629Z" fill="#E27A7A"/>
<path d="M1403.45 69.4917C1401.55 74.8861 1400.35 80.2805 1397.74 85.0545C1395.58 88.9834 1396.37 91.1232 1399.77 93.8114C1410.96 102.649 1421.82 111.811 1433.01 120.648C1435.15 122.348 1436.34 123.876 1435.95 126.394C1435.78 127.517 1435.92 128.668 1435.92 130.295C1434.89 129.756 1434.14 129.405 1433.44 128.983C1418.87 120.334 1405.58 110.336 1393.36 99.1788C1391.25 97.2548 1389.04 95.4117 1386.84 93.5687C1384.31 91.4559 1383.82 88.7227 1384.93 86.1244C1391.44 70.8853 1392.19 54.6841 1395.22 38.8696C1396.17 33.8978 1398.74 31.3984 1404.44 31.1197C1414.52 30.6342 1424.44 31.6231 1434.14 34.1405C1434.86 34.3293 1435.81 35.2284 1435.85 35.8397C1436.04 38.51 1435.93 41.1892 1435.93 44.1291C1432.24 43.8504 1428.79 43.5357 1425.34 43.3469C1420.48 43.0772 1415.61 42.9244 1410.75 42.6726C1409.16 42.5917 1408.55 43.1042 1408.31 44.5607C1407.57 48.9121 1406.7 53.2636 1405.68 57.5701C1405.23 59.4222 1405.59 60.4381 1407.76 60.9776C1416.32 63.1084 1424.85 65.3291 1433.4 67.5138C1434.18 67.7116 1434.98 67.8554 1435.84 68.0352C1435.84 70.0581 1435.84 72.0001 1435.84 74.2837C1424.74 73.9691 1414 72.1979 1403.45 69.4917Z" fill="white"/>
<path d="M22.3546 262.604C21.6971 275.479 21.1105 288.362 20.2912 301.228C20.1395 303.682 19.3203 306.2 18.2886 308.501C17.2772 310.749 15.0014 312.017 12.1492 311.981C9.18569 311.945 6.93019 310.569 5.95921 308.187C5.02869 305.93 4.27012 303.467 4.26 301.084C4.10829 276.279 4.10829 251.474 4.12851 226.678C4.12851 224.403 4.38137 222.101 4.86686 219.872C5.8075 215.538 9.53969 212.724 13.99 212.706C18.3897 212.688 21.9803 215.304 23.0524 219.593C23.5278 221.481 23.6795 223.477 23.629 225.419C23.3154 237.817 22.8906 250.215 22.5164 262.604C22.4557 262.604 22.4051 262.604 22.3546 262.604Z" fill="#2C596B"/>
<path d="M124.277 -21.1406C129.121 -21.1406 133.855 -21.1406 138.73 -21.1406C140.106 -16.0789 139.58 -11.0172 138.619 -6.0813C136.464 4.92325 133.916 15.8739 131.508 26.8424C131.003 29.162 130.588 31.5176 129.809 33.7742C128.424 37.811 124.843 39.8609 120.362 40.0137C114.162 40.2205 107.932 40.4723 101.772 41.1555C89.6654 42.5041 77.599 44.1854 65.5124 45.7048C61.8307 46.1633 59.2212 43.4841 60.1619 40.1126C61.1126 36.6962 63.6008 34.1968 67.2824 33.1629C71.3585 32.0211 75.6166 31.2568 79.8646 30.7264C90.3127 29.4138 100.791 28.3349 111.26 27.1481C112.726 26.9863 114.031 26.8245 114.435 25.0803C117.267 12.6103 120.271 0.167202 123.093 -12.3118C123.741 -15.1798 123.882 -18.1198 124.277 -21.1406Z" fill="white"/>
<path d="M837.634 -13.2272C837.604 -17.6865 836.866 -21.6424 839.212 -25.4545C841.195 -28.6731 843.966 -30.687 847.921 -30.4173C851.784 -30.1566 855.8 -29.5002 859.36 -28.1786C869.323 -24.5104 877.778 -18.7654 885.384 -12.0224C886.153 -11.3391 886.831 -10.53 887.387 -9.69386C889.652 -6.31338 888.803 -2.95088 884.808 -1.23366C880.691 0.537492 876.342 1.88609 872.054 3.33358C865.186 5.64418 858.268 7.81991 851.43 10.1755C849.397 10.8767 847.496 11.9196 845.625 12.9356C842.429 14.6798 839.162 14.7607 836.633 13.0075C834.104 11.2543 833.123 8.34137 834.499 5.25758C837.25 -0.874038 837.938 -7.22143 837.634 -13.2272Z" fill="#2C596B"/>
<path d="M1395.95 276.328C1394.32 276.587 1392.93 276.802 1391.55 277.025C1382.82 278.418 1376.1 273.704 1378.49 267.472C1379.78 264.088 1381.77 260.677 1384.48 257.784C1389.86 252.026 1395.71 246.472 1401.81 241.106C1410.7 233.294 1420.01 225.723 1429.13 218.054C1429.77 217.518 1430.47 217.009 1431.78 216C1431.78 219.991 1431.36 223.455 1431.87 226.839C1432.6 231.589 1430.11 235.026 1425.94 238.562C1417 246.124 1408.7 254.07 1400.2 261.891C1398.98 263.016 1398.13 264.356 1397.1 265.614C1400.21 266.891 1403.21 267.98 1405.99 269.293C1410.11 271.23 1411.34 273.945 1411.14 277.614C1410.75 284.971 1411.16 292.346 1411.4 299.721C1411.6 305.961 1412.12 312.193 1412.3 318.434C1412.35 320.015 1412.19 321.872 1411.08 323.113C1409.89 324.443 1407.53 325.916 1405.58 325.996C1403.62 326.077 1401.17 324.764 1399.64 323.577C1398.49 322.684 1398.13 321.059 1397.99 319.72C1396.4 305.667 1393.92 291.64 1396.15 277.498C1396.19 277.257 1396.08 277.016 1395.95 276.328Z" fill="#2C596B"/>
<path d="M1393.77 413.862C1389.26 415.319 1384.75 415.688 1380.49 413.134C1375.69 410.257 1372.8 406.31 1373.23 400.997C1373.73 394.766 1377.13 389.857 1382.68 386.126C1389.86 381.28 1398.23 379.087 1406.99 378.34C1415.48 377.621 1424.03 377.612 1432.56 377.262C1435.04 377.163 1437.52 377.073 1439.97 376.794C1445.91 376.12 1449.34 373.234 1449.97 367.956C1450.25 365.583 1449.45 363.128 1449.45 360.71C1449.45 359.361 1449.6 357.446 1450.55 356.817C1451.79 355.999 1454.04 355.702 1455.57 356.098C1458.75 356.907 1460.15 359.451 1461.04 362.112C1464.64 372.964 1457.62 385.344 1445.41 389.003C1441.3 390.235 1436.83 390.73 1432.48 391.116C1421.89 392.051 1411.27 392.582 1400.69 393.571C1397.55 393.867 1394.51 395.036 1391.49 395.989C1390.22 396.385 1389.06 397.167 1388.02 397.931C1382.51 401.977 1382.84 406.841 1388.85 410.32C1390.55 411.309 1392.36 412.163 1394.11 413.08C1393.99 413.341 1393.88 413.602 1393.77 413.862Z" fill="#E27A7A"/>
<path d="M1447.85 571.424C1447.85 572.251 1447.85 573.051 1447.85 573.86C1447.85 596.148 1447.82 618.436 1447.91 640.715C1447.92 642.702 1447.23 643.52 1445.18 644.194C1441.93 645.273 1438.8 646.693 1435.71 648.096C1429.02 651.126 1422.98 647.898 1423.64 641.272C1425.28 624.693 1427.01 608.115 1429.17 591.59C1429.72 587.409 1431.54 583.193 1433.64 579.372C1436.25 574.615 1441.73 571.945 1447.85 571.424Z" fill="#2C596B"/>
<path d="M1379.28 56.4627C1379.45 56.4257 1379.38 56.7706 1379.24 56.87C1375.85 59.384 1372.47 61.8892 1369.08 64.399C1367.27 65.7348 1365.39 66.9954 1363.68 68.4347C1362.2 69.6697 1361.13 69.7223 1359.77 69.2523C1349.32 65.6363 1344.24 53.2916 1348.49 41.6412C1351.62 33.0371 1359.14 28.24 1367.74 29.377C1369.13 29.5589 1370.48 29.8448 1371.83 30.0977C1373.31 30.3688 1374.43 29.8485 1374.87 28.2363C1375.4 26.2459 1375.96 24.2317 1376.22 22.2805C1376.31 21.5623 1375.48 21.0283 1375.25 20.3212C1375.06 19.7319 1374.83 18.921 1375.17 18.3669C1376.58 16.0651 1379.69 14.6331 1381.85 15.3776C1383.04 15.7919 1384.29 16.5315 1384.77 17.5584C1386.81 21.9911 1386.23 26.9516 1382.38 32.1598C1379.78 35.6762 1376.16 37.6114 1372.18 37.6881C1369.93 37.7325 1367.83 37.1859 1365.7 36.8236C1364.7 36.6587 1363.82 36.2382 1362.81 36.0591C1359.56 35.4806 1357.13 37.0651 1356.07 40.3991C1353.85 47.3791 1356.56 53.8339 1362.72 56.1967C1367.23 57.9209 1372.28 58.1363 1377.9 56.7671C1378.36 56.6562 1378.82 56.5547 1379.28 56.4627V56.4627Z" fill="#2C596B"/>
<path d="M490.308 21.2525C488.073 22.9428 486.121 24.5341 484.038 25.9726C480.285 28.5799 476.695 31.4839 472.598 33.5967C462.555 38.7663 452.339 36.4018 446.645 27.4291C444.015 23.2934 442.346 18.6183 440.667 14.069C439.494 10.8953 441.122 8.01832 444.005 6.7866C446.948 5.5369 450.65 6.33707 452.784 9.03426C454.2 10.8144 455.131 12.8912 456.233 14.8602C457.366 16.9101 458.276 19.0678 459.581 21.0188C461.169 23.4103 462.969 23.9318 465.599 22.4843C468.704 20.776 471.556 18.6992 474.419 16.6673C478.363 13.8622 482.015 10.7065 486.131 8.1352C492.776 3.98152 498.936 5.40204 502.456 11.9293C504.428 15.5884 505.692 19.5533 507.149 23.4193C508.899 28.0854 510.719 32.6167 514.886 36.204C517.759 38.6854 515.918 42.7312 511.68 43.7292C507.483 44.7181 503.599 43.6393 500.837 40.9151C498.37 38.4786 496.367 35.5387 494.809 32.5538C492.989 29.0384 491.866 25.2354 490.308 21.2525Z" fill="#48825D"/>
<path d="M887.909 61.3054C886.402 62.8698 884.663 64.8657 882.701 66.6728C880.708 68.4979 878.301 69.7836 875.297 68.8755C872.364 67.9855 871.605 65.7198 871.18 63.2654C870.614 59.9568 869.744 56.6842 869.41 53.3667C869.259 51.8023 869.572 49.8513 870.533 48.6106C872.202 46.4798 875.873 47.0283 877.421 49.4917C878.301 50.8942 878.756 52.5126 879.494 54.2657C879.838 53.5285 880.131 52.9171 880.415 52.3148C882.7 47.4958 887.93 46.4349 892.491 49.8154C894.018 50.9482 895.637 52.0181 897.356 52.8902C898.024 53.2228 899.379 53.2318 899.885 52.8362C900.34 52.4856 900.37 51.2539 900.047 50.6335C899.066 48.7185 898.165 46.6507 896.638 45.1043C889.234 37.6151 880.799 31.5194 869.198 29.9281C865.162 29.3706 863.463 25.4957 866.265 22.7086C867.782 21.1892 870.25 19.9934 872.505 19.5798C879.08 18.3751 885.361 19.6607 890.903 22.9603C900.198 28.4986 907.056 35.9518 911.617 45.0323C912.396 46.5787 912.841 48.287 913.155 49.9682C914.743 58.4104 907.612 65.0905 898.054 63.8947C894.696 63.4632 891.449 62.2225 887.909 61.3054Z" fill="#2C596B"/>
<path d="M200.57 9.9541C211.676 10.089 221.669 17.2006 223.914 26.5868C224.946 30.9113 223.955 35.02 221.234 38.4994C218.645 41.8079 215.752 45.2334 212.131 47.517C205.961 51.392 199.185 54.5207 192.519 57.7394C190.213 58.8452 187.604 58.4946 185.722 56.6065C183.841 54.7275 184.033 52.5877 185.156 50.43C185.429 49.9085 185.823 49.423 185.955 48.8746C186.815 45.1435 187.998 41.4303 188.312 37.6633C188.645 33.7164 186.734 30.4078 182.769 28.1602C181.171 27.2521 179.644 26.1103 178.42 24.8246C176.053 22.3432 176.761 19.691 179.684 17.713C184.772 14.2786 189.94 11.0959 196.484 10.3317C197.829 10.1789 199.205 10.08 200.57 9.9541ZM198.76 44.5861C203.564 41.9878 207.731 39.4074 210.988 35.8202C216.005 30.3179 214.791 24.8876 207.792 21.4262C204.474 19.7809 200.884 19.3224 197.152 19.682C195.533 19.8348 193.925 20.1675 191.852 20.4821C200.085 27.4139 199.973 35.6583 198.76 44.5861Z" fill="white"/>
<path d="M65.0974 762.689C64.9861 756.818 70.3973 754.274 76.1321 756.162C82.0389 758.104 88.148 759.624 94.2874 760.909C97.9994 761.682 101.924 761.7 105.757 761.961C109.874 762.24 112.756 766.115 110.571 769.181C104.867 777.164 98.94 785.031 92.7702 792.736C90.272 795.856 88.1581 795.874 84.0719 794.714C79.3586 793.374 76.4659 790.398 74.7465 786.586C71.9448 780.383 69.4971 774.054 66.9382 767.76C66.1493 765.845 65.5222 763.885 65.0974 762.689Z" fill="#2C596B"/>
<path d="M304.484 0.00495403C311.392 0.00495403 317.703 -0.0220179 324.015 0.0499072C324.581 0.0588979 325.36 0.580355 325.673 1.04787C332.116 10.542 335.15 20.7194 332.551 31.7599C329.436 45.0121 317.653 53.751 301.915 54.9198C294.41 55.4772 287.229 54.5062 280.533 51.3865C277.074 49.7772 274.282 47.5115 274.05 43.7354C273.979 42.5757 274.151 41.1192 274.889 40.2651C275.8 39.2221 277.398 38.1253 278.753 38.0624C279.946 38.0084 281.271 39.2941 282.414 40.1212C283.638 41.0113 284.528 42.4768 285.894 42.9892C292.913 45.6145 300.145 45.9292 307.437 43.8433C315.256 41.6137 318.684 36.2912 319.767 29.5482C320.859 22.7513 318.816 16.5837 314.194 11.1174C311.2 7.53911 308.024 4.04175 304.484 0.00495403Z" fill="#48825D"/>
<path d="M1373 215.087C1373.08 197.429 1389.21 183.476 1408.13 184.015C1412.77 184.15 1416.98 185.463 1420.49 188.187C1424.06 190.965 1424.71 194.795 1422.52 198.364C1421.55 199.947 1420.49 200.396 1418.93 198.976C1416.46 196.728 1413.52 196.431 1410.3 197.366C1399.02 200.666 1390.41 206.195 1390.51 220.131C1390.52 221.677 1390.36 223.223 1390.18 224.77C1389.91 227.323 1389.07 229.697 1386.06 230.623C1382.8 231.63 1380.09 230.416 1377.92 228.294C1373.87 224.347 1373.31 219.384 1373 215.087Z" fill="#DF9E62"/>
<path d="M174.274 129.065C174.072 138.856 171.331 148.269 168.59 157.665C165.849 167.06 162.875 176.401 159.791 185.707C159.083 187.828 157.818 189.959 156.22 191.649C154.218 193.762 151.345 193.214 150.475 190.552C149.757 188.341 149.393 185.859 149.717 183.594C151.547 170.899 153.702 158.24 155.593 145.554C156.605 138.775 157.414 131.96 158.061 125.146C158.496 120.578 161.287 117.468 165.707 117.288C170.158 117.108 173.779 120.192 174.254 124.678C174.406 126.117 174.274 127.591 174.274 129.065Z" fill="white"/>
<path d="M162.731 612.26C162.801 623.858 160.768 635.061 154.69 645.454C153.567 647.378 152.1 649.23 150.431 650.803C148.813 652.323 146.588 653.123 144.15 652.206C141.713 651.289 140.873 649.311 140.863 647.216C140.863 645.121 141.258 642.999 141.693 640.923C143.817 630.574 146.305 620.271 148.075 609.878C149.299 602.658 148.398 595.376 146.75 588.201C146.416 586.763 146.082 585.306 145.991 583.85C145.87 581.845 146.628 580.101 148.874 579.256C151.23 578.375 153.344 579.049 154.771 580.739C156.075 582.286 157.158 584.039 157.977 585.837C161.891 594.297 162.68 603.234 162.731 612.26Z" fill="#E27A7A"/>
<path d="M25.0861 497.845C24.722 504.992 24.4489 511.097 24.0747 517.21C23.9836 518.748 23.7813 520.321 23.2857 521.787C21.7686 526.318 16.4484 527.586 12.7365 524.178C11.1991 522.767 9.80333 520.87 9.31784 518.991C7.90183 513.533 6.38468 508.004 6.00033 502.448C5.43393 494.32 5.77782 486.148 5.8385 477.993C5.84862 476.213 6.13182 474.406 6.57685 472.662C7.41634 469.362 10.2484 467.151 13.7884 466.755C17.2475 466.377 20.7774 467.969 22.335 471.017C23.2655 472.842 23.9432 474.891 24.0747 476.869C24.5804 484.197 24.8029 491.533 25.0861 497.845Z" fill="#2C596B"/>
<path d="M96.7105 191.101C104.499 191.101 112.287 191.011 120.075 191.173C121.926 191.208 123.827 191.955 125.577 192.629C127.731 193.465 129.238 194.895 128.894 197.205C128.55 199.498 126.558 200.181 124.363 200.478C114.107 201.871 103.871 203.472 93.5751 204.533C82.9146 205.629 72.1934 206.25 61.4924 206.933C59.4291 207.068 57.2444 206.807 55.2417 206.313C49.9924 205.018 48.5157 199.974 52.6929 196.864C54.8271 195.263 57.7906 193.96 60.5214 193.672C70.9898 192.566 81.5289 191.91 92.0377 191.119C93.5751 191.002 95.1529 191.101 96.7105 191.101Z" fill="#E27A7A"/>
<path d="M1391.01 835.349C1389.61 837.255 1388.6 839.575 1386.73 840.987C1382.18 844.412 1376.68 846.318 1370.78 847.163C1365.15 847.963 1361.78 844.924 1362.74 839.845C1364.12 832.526 1365.63 825.226 1367.1 817.917C1368.06 813.098 1369.03 808.279 1370.02 803.469C1370.18 802.749 1370.4 802.03 1370.7 801.356C1371.98 798.452 1374.58 796.923 1377.69 797.211C1380.72 797.49 1382.95 799.558 1383.41 802.65C1383.8 805.159 1384.13 807.667 1384.4 810.194C1385.17 817.773 1386.23 825.289 1389.76 832.338C1390.16 833.138 1390.2 834.073 1390.41 834.945C1390.62 835.071 1390.82 835.206 1391.01 835.349Z" fill="#DF9E62"/>
<path d="M1464.38 488.662C1464.18 489.426 1463.86 490.946 1463.4 492.438C1459.6 504.791 1455.77 517.135 1451.98 529.498C1451.67 530.514 1451.68 531.601 1451.41 532.626C1450.62 535.593 1447.7 537.328 1444.41 536.852C1441.18 536.384 1439.05 533.822 1439.37 530.792C1440.63 519.104 1441.89 507.417 1443.14 495.72C1443.51 492.312 1443.48 488.842 1444.23 485.506C1445.33 480.579 1450.3 477.595 1455.58 478.206C1460.86 478.835 1464.57 482.89 1464.38 488.662Z" fill="#2C596B"/>
<path d="M83.6691 179.306C74.7685 179.306 65.8578 179.315 56.9571 179.297C55.6726 179.297 54.3881 179.198 53.1137 179.027C49.7254 178.578 48.4611 175.953 50.8885 173.786C52.4866 172.365 54.7623 171.161 56.947 170.72C62.8437 169.551 68.8213 168.427 74.8292 168.032C90.0209 167.034 105.243 166.396 120.455 165.721C123.277 165.595 126.149 165.865 128.971 166.144C132.086 166.458 133.877 167.951 134.15 170.109C134.433 172.32 133.169 174.343 130.094 174.928C123.297 176.213 116.44 177.445 109.531 178.002C100.944 178.704 92.2967 178.713 83.6691 179.018C83.6691 179.108 83.6691 179.207 83.6691 179.306Z" fill="#2C596B"/>
<path d="M1431.65 436.455C1426.52 435.718 1422.52 435.286 1418.59 434.54C1415.27 433.911 1412.5 432.31 1410.51 429.793C1407.57 426.053 1407.74 421.71 1411.58 418.725C1423.09 409.798 1442.31 408.521 1452.56 423.086C1455.03 426.61 1453.28 431.195 1448.2 432.769C1442.55 434.504 1436.57 435.394 1431.65 436.455Z" fill="#E27A7A"/>
<path d="M31.3227 43.008C25.3855 43.062 21.9467 38.0452 24.4955 33.6218C25.3249 32.1833 26.6094 30.9606 27.6107 29.603C34.8627 19.6953 42.0944 9.76061 49.3565 -0.147075C52.0065 -3.7703 54.6969 -7.37555 57.4784 -10.9179C58.3583 -12.0327 59.481 -13.0576 60.7048 -13.8938C62.4546 -15.0895 64.7405 -15.4132 66.2576 -13.9927C67.4208 -12.9048 68.3007 -10.9988 68.1591 -9.5423C67.9771 -7.69022 66.8442 -5.82017 65.7519 -4.14791C61.3117 2.61305 56.6591 9.26613 52.229 16.0361C47.3438 23.5073 42.59 31.0505 37.8565 38.5936C36.2686 41.111 34.2659 42.9181 31.3227 43.008Z" fill="#2C596B"/>
<path d="M1439.41 152.434C1426.78 148.559 1414.82 144.406 1405.86 135.676C1403.59 133.455 1401.79 130.641 1400.57 127.818C1399.3 124.86 1400.03 121.785 1403.08 119.654C1406.06 117.587 1409.28 117.892 1412.39 119.394C1414.55 120.446 1416.62 121.686 1418.62 122.972C1425.18 127.153 1431.71 131.36 1438.2 135.622C1438.82 136.026 1439.35 136.907 1439.36 137.582C1439.45 142.383 1439.41 147.184 1439.41 152.434Z" fill="white"/>
<path d="M70.1349 18.9584C65.543 19.0123 63.1358 15.6408 65.6846 12.1704C68.6785 8.08866 72.1679 4.29461 75.536 0.437623C77.5488 -1.87297 79.7638 -4.04871 81.8069 -6.34132C85.0839 -10.0365 90.748 -9.4431 93.2867 -5.09162C94.5105 -2.9968 95.5321 -0.785105 97.0391 1.1299C98.2225 2.64033 100.013 3.75517 101.5 5.08579C105.282 8.45728 103.988 13.4021 98.799 14.3641C89.5646 16.0634 80.2493 17.4299 70.9643 18.9224C70.6912 18.9584 70.408 18.9494 70.1349 18.9584Z" fill="#2C596B"/>
<path d="M98.2543 327.445C92.125 327.517 89.2424 324.182 90.4056 319.947C91.5788 315.677 92.9948 311.451 94.2187 307.189C94.9368 304.663 95.5335 302.11 96.1101 299.556C96.5551 297.578 97.5766 296.023 99.8018 295.349C102.027 294.674 103.736 295.493 105.587 296.688C113.224 301.642 115.6 309.491 119.585 316.432C120.941 318.796 119.768 321.557 117.047 322.384C110.381 324.398 103.574 326.034 98.2543 327.445Z" fill="#2C596B"/>
<path d="M89.1865 403.892C88.3066 406.76 87.639 409.61 86.5467 412.325C84.2103 418.124 81.6716 423.86 79.1126 429.578C78.88 430.1 77.7573 430.783 77.292 430.657C75.2591 430.126 72.8721 429.749 71.4156 428.544C67.8756 425.613 64.8211 422.224 61.5035 419.086C56.9824 414.815 57.2454 410.374 63.0106 407.596C69.4231 404.503 76.2199 402.004 82.9864 399.522C86.0814 398.389 89.1461 400.808 89.1865 403.892Z" fill="#2C596B"/>
<path d="M1482.75 24C1460.68 23.9199 1438.98 23.7776 1419.42 20.2725C1404.01 17.5148 1398.89 12.9867 1403.23 6.88395C1406.72 2 1406.72 2 1422.54 2C1442.44 2 1462.31 2 1482.75 2C1482.75 9.33037 1482.75 16.5273 1482.75 24Z" fill="#2C596B"/>
<path d="M1439.42 177.122C1430.01 177.059 1421 176.375 1412.4 173.588C1409.55 172.662 1406.93 170.963 1404.53 169.255C1403.11 168.239 1402.02 166.62 1401.33 165.083C1398.98 159.797 1403.29 155.094 1409.56 156.182C1412.78 156.74 1415.88 157.819 1418.99 158.808C1425.03 160.732 1430.99 162.826 1437.04 164.714C1438.75 165.245 1439.58 165.838 1439.47 167.6C1439.28 170.675 1439.42 173.759 1439.42 177.122Z" fill="#E27A7A"/>
<path d="M1366.69 170.899C1365.7 173.812 1365.21 176.976 1363.58 179.566C1362.41 181.427 1359.82 182.703 1357.61 183.854C1356.88 184.232 1354.86 183.746 1354.3 183.081C1352.32 180.761 1350.15 178.37 1349.12 175.682C1347.36 171.078 1346.2 166.268 1345.19 161.476C1344.32 157.35 1346.48 153.906 1350.13 152.576C1353.94 151.182 1358.19 152.351 1361.02 155.731C1364.72 160.164 1365.8 165.333 1366.69 170.899Z" fill="white"/>
<path d="M152.814 140.844C152.592 147.263 147.362 151.651 140.272 151.579C133.971 151.516 126.689 145.897 127.154 139.379C127.619 132.851 132.899 128.365 140.363 128.563C147.322 128.734 153.037 134.38 152.814 140.844Z" fill="white"/>
<path d="M1416.14 822.907C1416.14 823.069 1416.19 823.249 1416.13 823.392C1413.97 829.479 1411.46 835.44 1406.43 840.187C1404.48 842.021 1401.04 841.077 1400.44 838.569C1399.77 835.791 1399.39 832.932 1399.14 830.091C1398.59 824.157 1398.18 818.214 1397.78 812.271C1397.62 810.005 1398.32 808.018 1400.87 807.003C1403.38 806.005 1405.61 806.742 1407.48 808.252C1412.33 812.19 1414.9 817.252 1416.14 822.907Z" fill="#2C596B"/>
<path d="M96.0369 638.253C91.9001 637.74 88.1275 637.497 84.4863 636.751C79.7933 635.789 75.8082 633.64 73.3403 629.765C71.277 626.529 71.6816 623.085 74.2506 620.99C76.6679 619.022 80.1574 618.869 83.6165 621.089C90.5347 625.54 98.4846 627.733 106.536 629.711C108.073 630.089 109.782 629.918 111.411 630.044C112.088 630.098 112.756 630.251 113.434 630.35C113.252 631.006 113.241 631.761 112.857 632.31C110.915 635.133 107.871 636.634 104.381 637.309C101.539 637.857 98.5958 637.974 96.0369 638.253Z" fill="#2C596B"/>
<path d="M260.683 36.1304C260.248 38.5938 259.814 41.0662 259.358 43.5296C259.207 44.3298 259.065 45.148 258.782 45.9212C258.195 47.5485 257.062 48.6813 254.949 48.4026C253.017 48.1508 252.127 46.9371 252.066 45.3008C251.985 43.0981 251.975 40.8954 252.056 38.6927C252.167 35.51 252.268 32.3273 252.602 29.1626C253.098 24.4245 256.891 22.7163 260.936 25.7282C268.38 31.2754 275.531 37.1373 282.672 42.9902C284.907 44.8243 284.725 47.5035 282.733 49.0589C280.791 50.5783 278.535 50.1378 276.259 48.1688C271.415 43.9702 266.438 39.8884 261.513 35.7617C261.25 35.8876 260.967 36.0135 260.683 36.1304Z" fill="#48825D"/>
<path d="M427.506 -31.2832C431.734 -31.2832 435.567 -31.2832 439.734 -31.2832C438.996 -25.6551 438.227 -20.1708 437.58 -14.6775C437.216 -11.6027 436.993 -8.5099 436.831 -5.41712C436.629 -1.51518 433.261 1.31687 429.114 0.957245C424.967 0.59762 422.206 -2.89974 422.924 -6.60389C424.36 -13.9942 425.675 -21.4025 427.041 -28.8108C427.172 -29.602 427.334 -30.3931 427.506 -31.2832Z" fill="#2C596B"/>
<path d="M1435.91 263C1439.56 263.342 1443.1 263.575 1445.39 266.416C1446.33 267.585 1446.61 268.251 1444.47 269.222C1439.87 271.316 1436.19 274.508 1434.33 279.039C1433.75 280.487 1433.26 282.015 1432.37 283.319C1429.19 287.985 1423.07 287.958 1419.96 283.238C1417.02 278.77 1417.46 274.265 1420.78 270.139C1424.47 265.544 1429.8 263.432 1435.91 263Z" fill="#E27A7A"/>
<path d="M609.753 80.4115C611.027 74.2889 612.413 67.5549 613.829 60.8299C614.486 57.7101 615.194 54.5904 615.892 51.4796C616.003 51.0031 616.135 50.5266 616.307 50.0591C617.298 47.4248 619.554 46.1302 622.113 46.7146C624.479 47.263 625.966 49.3848 625.481 51.9202C624.257 58.2676 622.932 64.597 621.607 70.9174C620.798 74.7654 620.049 78.6224 619.028 82.4164C618.33 85.0147 616.095 86.2824 613.586 85.9408C611.159 85.6171 609.631 83.6661 609.753 80.4115Z" fill="#2C596B"/>
<path d="M1440.16 554.107C1439.14 556.22 1438.12 558.342 1437.1 560.455C1435.07 559.493 1432.96 558.648 1431.05 557.533C1429.84 556.831 1429.06 555.555 1427.84 554.862C1425.58 553.577 1423.27 552.102 1420.74 551.473C1415.58 550.178 1412.97 547.805 1413.48 543.975C1413.98 540.226 1417.92 537.555 1422.87 537.627C1431.8 537.762 1439.61 545.35 1440.16 554.107Z" fill="#E27A7A"/>
<path d="M49.1529 486.49C48.6776 487.829 48.4551 490.518 47.4638 490.76C45.6433 491.21 42.9326 490.769 41.375 489.753C35.0333 485.609 30.3504 480.178 28.0241 473.426C26.8508 470.037 28.3579 467.043 31.3214 465.578C34.2646 464.121 37.8552 464.661 40.6872 467.016C41.3548 467.573 42.0021 468.176 42.4876 468.859C46.2299 474.146 47.7268 480.088 49.1529 486.49Z" fill="#E27A7A"/>
<path d="M450.661 45C455.941 45.018 458.712 46.3576 459.197 48.5783C459.683 50.8259 458.024 52.4802 453.786 53.8198C451.622 54.5031 449.376 54.9796 447.232 55.6899C441.659 57.533 436.056 59.3221 430.584 61.381C426.751 62.8285 424.556 62.9543 423.079 61.1472C421.582 59.3221 422.199 56.7957 424.91 54.3862C430.321 49.5583 437.31 47.5354 444.491 45.944C446.868 45.4226 449.356 45.1978 450.661 45Z" fill="#48825D"/>
<path d="M118.061 291.59C114.865 291.491 112.397 290.331 110.849 287.985C108.675 284.676 106.631 281.295 104.639 277.888C104.103 276.971 103.81 275.883 103.658 274.849C103.041 270.561 107.269 267.585 111.79 269.176C113.034 269.617 114.278 270.336 115.178 271.208C118.162 274.094 121.095 277.025 123.826 280.091C125.93 282.446 126.243 285.179 124.655 287.922C123.259 290.313 120.903 291.401 118.061 291.59Z" fill="#2C596B"/>
<path d="M189.853 718.261C184.644 718.324 180.356 714.763 180.012 710.493C179.668 706.339 186.859 700.199 190.581 700.235C195.588 700.288 200.311 704.074 200.402 708.479C200.524 713.918 195.912 718.189 189.853 718.261Z" fill="#2C596B"/>
<path d="M1087.79 80.7346C1085.86 80.7346 1083.93 80.8155 1082.01 80.7166C1078 80.5278 1075.73 77.6238 1077.37 74.3872C1078.92 71.3573 1080.85 68.4444 1082.96 65.6842C1084.87 63.1848 1088.61 62.8971 1090.89 64.992C1093.29 67.2127 1095.5 69.6311 1097.63 72.0766C1099.22 73.8927 1099.47 75.9336 1098.14 78.0374C1096.75 80.2221 1094.69 81.0582 1091.92 80.7436C1090.55 80.5907 1089.17 80.6177 1087.79 80.5548C1087.8 80.6087 1087.79 80.6716 1087.79 80.7346Z" fill="white"/>
<path d="M118.935 622.555C111.258 622.339 102.499 614.697 102.185 608.098C102.044 605.248 103.51 603.081 106.12 602.281C108.81 601.453 111.885 602.317 113.362 604.906C116.285 610.049 119.015 615.281 121.514 620.595C122.606 622.941 120.148 622.42 118.935 622.555Z" fill="#2C596B"/>
<path d="M847.727 44.3222C842.266 44.1154 838.311 40.7619 838.422 36.4194C838.533 32.1579 842.519 28.7234 847.141 28.9032C852.178 29.101 856.244 33.1828 856.062 37.8489C855.91 41.7419 852.37 44.493 847.727 44.3222Z" fill="#2C596B"/>
<path d="M65.3928 455.956C58.5858 454.949 53.4882 452.656 49.8369 448.422C48.957 447.406 48.9974 445.284 49.5032 443.927C50.1606 442.146 52.3251 441.535 54.3277 441.922C59.7085 442.965 64.6342 445.014 68.2653 448.755C69.388 449.914 70.1668 452.288 69.5801 453.565C69.0036 454.814 66.5155 455.372 65.3928 455.956Z" fill="#DF9E62"/>
<path d="M1433.15 803.082C1432.66 806.678 1432.39 810.32 1431.54 813.853C1431.21 815.211 1429.83 816.829 1428.43 817.422C1426.45 818.276 1425.41 816.433 1424.55 815.112C1422.99 812.72 1421.35 810.356 1420.11 807.838C1418.81 805.213 1419.47 803.523 1422.15 801.94C1424.05 800.826 1426.08 799.855 1428.15 799C1430.79 797.93 1432.59 799.63 1433.15 803.082Z" fill="#2C596B"/>
<path d="M1303.86 820.083C1307.26 820.11 1309.68 820.919 1311 823.329C1312.28 825.648 1311.64 827.77 1309.86 829.694C1309.46 830.135 1309.07 830.593 1308.67 831.034C1306.21 833.686 1303.06 834.567 1299.9 833.497C1296.85 832.463 1294.97 829.748 1295.17 826.691C1295.38 823.571 1297.53 821.288 1301.14 820.452C1302.19 820.209 1303.31 820.155 1303.86 820.083Z" fill="#DF9E62"/>
<path d="M1153.43 27.8113C1153.45 31.0749 1149.94 32.891 1146.91 31.2906C1145.24 30.4096 1143.67 29.07 1142.64 27.6045C1140.66 24.8084 1138.97 21.8235 1137.4 18.8206C1136.57 17.2113 1137.02 15.557 1138.86 14.5591C1140.83 13.5071 1142.72 14.0106 1144.01 15.4761C1147 18.8566 1149.83 22.3539 1152.63 25.8513C1153.16 26.4806 1153.26 27.3617 1153.43 27.8113Z" fill="#2C596B"/>
<path d="M261 -12.9759C266.719 -12.9759 271.825 -13.0847 276.921 -12.84C277.534 -12.8128 278.529 -11.1543 278.69 -9.71328C279.585 -1.44795 280.55 6.87176 280.962 15.3546C281.374 23.9462 278.389 28.9489 275.715 24.1093C270.257 14.2399 265.362 2.57596 261 -12.9759Z" fill="#2C596B"/>
<path d="M28.709 348.356C28.6179 344.095 31.7433 340.31 35.3541 340.31C38.6817 340.31 41.4632 343.034 41.5441 346.378C41.6452 350.199 38.4086 353.589 34.6259 353.616C31.2881 353.643 28.7697 351.404 28.709 348.356Z" fill="#2C596B"/>
<path d="M1386.35 152.627C1386.4 155.926 1383.83 158.605 1380.56 158.641C1376.89 158.686 1373.12 155.252 1373 151.755C1372.89 148.563 1375.55 146.045 1379.08 146.001C1383.02 145.956 1386.29 148.931 1386.35 152.627Z" fill="#2C596B"/>
<path d="M161.847 707.954C158.478 707.954 156.112 705.878 156.102 702.929C156.091 700.016 158.569 697.732 161.745 697.75C165.033 697.768 167.966 700.348 167.935 703.189C167.905 705.949 165.346 707.954 161.847 707.954Z" fill="#2C596B"/>
<path d="M1432.25 789.875C1432.21 792.293 1430.09 794.289 1427.65 794.199C1425.37 794.118 1423.6 792.437 1423.58 790.315C1423.56 787.942 1425.65 785.991 1428.18 786.027C1430.5 786.063 1432.28 787.753 1432.25 789.875Z" fill="#2C596B"/>
<path d="M499.111 104.655C496.582 104.682 494.367 103.009 494.367 101.067C494.367 99.0893 496.218 97.4081 498.352 97.453C500.517 97.498 502.6 99.3321 502.651 101.238C502.701 103.045 501.043 104.637 499.111 104.655Z" fill="#48825D"/>
<path d="M131.106 608.396C133.402 608.458 135.021 610.005 134.808 611.803C134.586 613.7 133.301 614.725 131.157 614.734C129.114 614.743 127.506 613.17 127.718 611.362C127.951 609.456 129.276 608.53 131.106 608.396Z" fill="#2C596B"/>
<path d="M734.845 36.9051C732.751 36.9051 730.607 37.1838 728.584 36.8511C721.049 35.6194 715.577 29.4338 714.748 21.594C714.262 16.9998 715.516 12.6753 717.317 8.45865C720.928 0.0254307 726.531 -7.28396 733.55 -13.7482C734.562 -14.6743 735.745 -15.5104 736.999 -16.1487C739.002 -17.1647 741.085 -17.1737 742.825 -15.6363C744.595 -14.0719 744.454 -12.2558 743.25 -10.4846C741.075 -7.26598 738.537 -4.21815 736.706 -0.855646C733.763 4.54773 730.708 9.98707 728.716 15.6961C726.318 22.538 728.665 28.8764 733.763 34.3787C734.218 34.8732 734.612 35.4036 735.037 35.9161C734.976 36.2397 734.906 36.5724 734.845 36.9051Z" fill="#2C596B"/>
<path d="M746.578 32.211C744.383 32.7144 742.725 31.8064 741.582 30.3859C740.54 29.0822 739.529 27.5718 739.225 26.0434C738.032 19.9837 738.669 14.0139 741.278 8.28684C742.462 5.70653 744.606 4.64563 747.044 5.11314C749.552 5.59864 751.261 7.54961 750.836 10.3367C750.027 15.6592 748.864 20.9367 747.822 26.2322C747.438 28.2191 747.003 30.1881 746.578 32.211Z" fill="#2C596B"/>
</g>
<defs>
<clipPath id="clip0_7892_64437">
<rect width="1440" height="834" fill="white"/>
</clipPath>
</defs>
</svg>
